# xmcd
#
# Track frame offsets: 
#        150
#        13491
#        26120
#        35633
#        49552
#        61832
#        73492
#        83169
#        93405
#        104832
#        116290
#        128759
#        141319
#        152749
#        165524
#        177980
#        189103
#        201029
#        213152
#        225814
#
# Disc length: 3165 seconds
#
# Revision: 0
# Processed by: cddbd v1.5.2PL0 Copyright (c) Steve Scherf et al.
# Submitted via: ExactAudioCopy v0.95b3
#
DISCID=110c5b14
DTITLE=Lightnin' Hopkins - Short Haired Woman
DYEAR=2004
DGENRE=
TTITLE0=Moon Rise Blues
TTITLE1=Picture On The Wall
TTITLE2=Henny Penny Blues
TTITLE3=Untrue Blues
TTITLE4=Mama's Baby Child
TTITLE5=T-Model Blues
TTITLE6=Feel So Bad
TTITLE7=Down Baby
TTITLE8=Let Me Play With Your Poodle
TTITLE9=Mercy
TTITLE10=Short Haired Woman
TTITLE11=Fast Mail Rambler
TTITLE12=Big Mama Jump
TTITLE13=Baby Please Don't Go
TTITLE14=Shining Moon
TTITLE15=Mad With You
TTITLE16=Someday Baby
TTITLE17=You Don't Know
TTITLE18=Lightnin's Boogie
TTITLE19=Honey Babe
EXTD=
EXTT0=
EXTT1=
EXTT2=
EXTT3=
EXTT4=
EXTT5=
EXTT6=
EXTT7=
EXTT8=
EXTT9=
EXTT10=
EXTT11=
EXTT12=
EXTT13=
EXTT14=
EXTT15=
EXTT16=
EXTT17=
EXTT18=
EXTT19=
PLAYORDER=
